<svg xmlns="http://www.w3.org/2000/svg" version="1.1" xmlns:xlink="http://www.w3.org/1999/xlink" xmlns:svgjs="http://svgjs.com/svgjs" width="1600" height="400" preserveAspectRatio="none" viewBox="0 0 1600 400"><g mask="url(&quot;#SvgjsMask2136&quot;)" fill="none"><rect width="1600" height="400" x="0" y="0" fill="url(#SvgjsLinearGradient2137)"></rect><path d="M926.081,288.352C946.951,288.897,963.914,273.629,974.5,255.635C985.267,237.334,990.841,214.808,980.136,196.471C969.499,178.251,947.162,171.852,926.081,172.695C906.569,173.476,888.435,183.401,879.033,200.517C869.956,217.042,872.951,236.595,881.853,253.215C891.382,271.005,905.907,287.825,926.081,288.352" fill="rgba(28, 83, 142, 0.4)" class="triangle-float3"></path><path d="M20.082,315.724C30.585,315.847,42.689,315.312,47.893,306.188C53.071,297.11,47.372,286.437,41.845,277.567C36.74,269.374,29.699,262.387,20.082,261.552C8.815,260.574,-3.516,263.452,-9.384,273.119C-15.418,283.06,-13.239,295.987,-6.624,305.551C-0.816,313.948,9.873,315.605,20.082,315.724" fill="rgba(28, 83, 142, 0.4)" class="triangle-float2"></path><path d="M861.266,358.596C871.692,358.822,883.387,357.581,888.691,348.602C894.053,339.524,890.06,328.309,884.418,319.402C879.236,311.221,870.949,305.181,861.266,305.306C851.777,305.429,844.03,311.861,839.127,319.986C834.02,328.448,830.913,338.88,835.83,347.454C840.765,356.061,851.347,358.381,861.266,358.596" fill="rgba(28, 83, 142, 0.4)" class="triangle-float3"></path><path d="M1495.031,433.23C1524.633,432.042,1545.311,406.771,1559.051,380.524C1571.621,356.51,1575.433,328.435,1562.299,304.725C1548.771,280.303,1522.941,264.257,1495.031,264.953C1468.174,265.623,1447.288,284.984,1433.337,307.943C1418.68,332.064,1408.979,360.725,1421.448,386.046C1435.244,414.062,1463.827,434.482,1495.031,433.23" fill="rgba(28, 83, 142, 0.4)" class="triangle-float2"></path><path d="M253.631,336.282C266.677,336.719,281.458,334.566,287.708,323.106C293.809,311.919,286.516,299.15,279.78,288.334C273.568,278.359,265.382,268.429,253.631,268.385C241.826,268.341,233.044,277.914,227.142,288.138C221.241,298.36,217.598,310.609,223.288,320.95C229.143,331.592,241.492,335.876,253.631,336.282" fill="rgba(28, 83, 142, 0.4)" class="triangle-float1"></path><path d="M1601.345,454.03C1634.942,455.966,1668.889,442.355,1686.442,413.642C1704.697,383.781,1705.672,344.575,1685.924,315.679C1668.054,289.53,1632.954,287.125,1601.345,289.123C1573.915,290.857,1547.643,301.774,1533.458,325.316C1518.812,349.623,1518.451,379.625,1531.69,404.726C1545.914,431.694,1570.906,452.276,1601.345,454.03" fill="rgba(28, 83, 142, 0.4)" class="triangle-float3"></path><path d="M389.936,341.023C430.138,340.824,456.702,304.419,476.977,269.704C497.496,234.57,515.83,193.702,497.058,157.604C477.188,119.396,433.002,102.522,389.936,102.329C346.493,102.135,301.373,118.193,281.14,156.637C261.885,193.222,280.379,234.966,301.389,270.573C321.933,305.39,349.51,341.223,389.936,341.023" fill="rgba(28, 83, 142, 0.4)" class="triangle-float3"></path><path d="M428.069,203.234C446.214,202.915,460.6,189.428,469.229,173.463C477.391,158.361,478.329,140.499,470.125,125.419C461.535,109.63,446.042,97.991,428.069,97.808C409.808,97.622,393.514,108.663,384.506,124.549C375.623,140.215,375.603,159.199,384.326,174.955C393.339,191.235,409.463,203.561,428.069,203.234" fill="rgba(28, 83, 142, 0.4)" class="triangle-float3"></path></g><defs><mask id="SvgjsMask2136"><rect width="1600" height="400" fill="#ffffff"></rect></mask><linearGradient x1="18.75%" y1="-75%" x2="81.25%" y2="175%" gradientUnits="userSpaceOnUse" id="SvgjsLinearGradient2137"><stop stop-color="#0e2a47" offset="0"></stop><stop stop-color="rgba(53, 123, 124, 1)" offset="1"></stop></linearGradient><style>
            @keyframes float1 {
                0%{transform: translate(0, 0)}
                50%{transform: translate(-10px, 0)}
                100%{transform: translate(0, 0)}
            }

            .triangle-float1 {
                animation: float1 5s infinite;
            }

            @keyframes float2 {
                0%{transform: translate(0, 0)}
                50%{transform: translate(-5px, -5px)}
                100%{transform: translate(0, 0)}
            }

            .triangle-float2 {
                animation: float2 4s infinite;
            }

            @keyframes float3 {
                0%{transform: translate(0, 0)}
                50%{transform: translate(0, -10px)}
                100%{transform: translate(0, 0)}
            }

            .triangle-float3 {
                animation: float3 6s infinite;
            }
        </style></defs></svg>